<?xml version="1.0" encoding="UTF-8"?>
<svg id="Layer_1" xmlns="http://www.w3.org/2000/svg" version="1.1" viewBox="0 0 512 512">
  <!-- Generator: Adobe Illustrator 29.8.6, SVG Export Plug-In . SVG Version: 2.1.1 Build 1)  -->
  <path d="M356.88,209.76c1.52,1.32-.83,3.51-.36,3.96,2.6-.64,2.25,4.03,2.05,5.9-.22,2.08-1.22,5.68-1.67,8.07-.91,4.79-2.52,9.51-2.9,14.41.45,1.3,4.68,1.76,5.96,2.27,1.53.61,8.3,3.51,9.14,4.19,3.8,3.09,1.53,9.59,1.03,13.27-.1.77.5,2.13.18,2.59-.17.25-1.66.24-2.24,1.1-1.36,2.02-1.1,7.58-4.08,9.76l-10.55.99c.24,2.54,3.06,3.71,4.14,5.86.25.49,1.52,4.25,1.54,4.63.04,1.17-.81,2.19-.94,3.21-.74,5.57-2.34,15.72-4.35,20.78-.87,2.19-5.42,6.07-7.07,7.8-13.17,13.82-28.06,26.65-42.28,39.25-2.87,2.55-9.6,9.71-12.58,11.04-1.09.49-1.93-.23-2.57,0-1.97.7-1.09,3.05-6.35,2.26-9.1-1.38-19.74-5.61-28.59-8.32-2.06-.63-3.88-1.92-5.75-2.92-4.2,6.46-9.3,12.31-13.76,18.58-6.88,9.69-13.2,21.32-20.15,30.62-.62.83-3.19,3.53-4.04,3.57-6.09-.69-11.93-2.8-17.71-4.85-19.86-7.07-39.12-15.24-58.64-22.9-2.57-1.01-14.94-5.97-16.51-6.08-.6-.04-1.62.57-1.74.49s-.61-1.46-1.62-2.24c-2.02-1.55-6.63-1.66-6.6-4.64,0-.27,1.27-4.65,1.47-5.16,4-10.05,18.93-26.55,26.17-35.36,3.32-4.04,6.42-8.26,9.75-12.3-1.63-.49-2.77-1.67-4.15-2.51-.63-.38-1.56-.31-2.28-.79-.33-.22-2.65-3.21-2.71-3.46-.18-.77.47-1.63.42-2.44-.06-1.04-1.01-1.96-1.06-3.61-.05-1.6.71-3.06.6-4.61-.1-1.36-1.07-2.27-1.08-3.58-.02-1.6,1.13-9.14,1.61-10.74.66-2.22,3.16-5.44,5.59-5.43-.7,1.39.89,3.73.85,4.36-.02.44-1.05,1.26-1.26,2.16-1.25,5.27-2.13,15.13-1.75,20.41.04.58-.47,1.29-.33,1.95.36,1.6,7.11,3.3,8.64,4.75l5.08-5.78c-1.62-2.69-.94-8.35,1.06-10.68,2.18-2.55,4.89.41,7.48.3,1.23-.05,1.74-1.08,2.91-.98,2.06.18,2.83,2.04,4.36,2.88,2.88,1.6,7.47,2.13,10.54,3.31,18.27,7.03,36.63,13.32,55.15,19.72,11.08,3.83,22.3,7.68,33.15,11.97,1.3,1.45-.81,9.45-1.84,10.94-1.93,2.81-5.51-.73-7.29-.14l-4.99,6.84c1.47.42,1.02,1.71,1.6,2.55.76,1.1,12.89,4.02,15.25,4.75,4.59,1.43,9.13,3.26,13.7,4.77,1.4-.02,1.65-2.11,2.97-2.71,1.08-.49,1.45.89,2.55.61.55-.13,5.48-4.45,6.34-5.26,2.7-2.52,2.36-2.73,5.59-4.92,2.25-1.53,17.86-16.3,19.48-18.48,1.14-1.54,1.11-2.67,2.01-4.18.89-.78,1.78.47,3.13-.4,2.65-1.71,7.74-7.96,10.49-10.56,3.57-3.37,8.09-5.95,10.77-10.25l-3.07-.26.52-2.56c2.1-.68,3.26,3.21,4.34,1.53.71-1.11.49-4.46,1.29-5.88l-1.02-.53-3.33,4.36c-1.82-1.41-.14-2.41.15-3.47.65-2.4-1.85-2.37-1.98-3.02-.41-1.94,2.83-5.11,2.6-5.29-1.83-.35-2.41,1.51-3.62,2.27s-5.13,3.17-5.11.56c.03-2.83,12.32-12.21,14.87-14.37l-3.06-2.31c-.09,1.32-2.8,5.71-3.86,6.15-1.79.75,1.01-3.3-1.27-2.56-1.01,2.22-.85,7.25-4.11,7.18-1.05-5.28.59-9.62,1.47-14.68.17-.99-.08-2.05.09-2.98.48-2.64,2.19-5.44,1.5-8.49l-9.48,7.69c-1.69.53,3.15-4.24,3.3-4.5.68-1.1-.1-2.88,2.08-3.19l.25,2.05c3.54-2.86,4.59-6.34,5.93-10.49l-.8-1.3-.76,1.02c-.54-1.77.95-1.42,1.43-2.39.67-1.37.58-4.02,1.65-5.56v-.76s-1.55-.26-1.55-.26l1.54-4.87-1.55.28-.79-1.8-2.27.5v-1.01c.44-.05.93-.2,1.22-.55,1.12-1.35,5.3-6.41,5.84-7.53.65-1.35.08-2.16.28-2.86.5-1.76,2.22-3.29,1.36-5.98l-1.97,3.46c.11,3.15-2.18,4.57-3.17,7.3l-1.02-.26,2.57-5.89c-.25-.3-3.48,3.72-4.61,2.82l3.08-6.4c-1.33,1.25-3.95,3.76-4.72,5.27-2.86,5.58-4.49,17.74-6.4,24.37-2.67,9.29-5.81,18.54-8.62,27.79-.82,2.7-3.91,17.42-6.67,17.42-3.32-1.69.86-11.59.25-12.29l-3.59,2.81c.88-.97.02-3.01.1-3.25.02-.05.71-.08.92-.44.64-1.14,1.47-2.39,1.57-3.72l2.26.45,10.58-37.6,8.16-23.63-1.54-1.03.07-1.22c2.51-.39,3.38-3.27,6.1-3.15v-1.52c-.39.33-3.65,1.2-3.06-.25.58-.62,1.14-1.27,1.86-1.73.43-.27,3.64-.91,2.25-1.88-.3-.21-6.57-2.25-6.96-2.28-1.63-.12-2.48,1.01-3.71,1.38-.51.15-1.13-.2-1.66-.05-.68.2-1.24,1.17-2.34,1.23-1.88.11-1.52-1.52-2.05-1.57-.44-.04-1.91.6-3.03.58-2.57-.04-5.98-2.48-7.19.47.33.72,7.42,2.84,8.95,3.36,2.81.96,2.66,1.03,5.01,2.17,1.51.72,4.22.32,4.25,2.67-2.5.66-4.57-.55-6.54-.89-19.58-3.31-39.32-9.65-58.6-15.24-8.15-2.36-15.5-4.61-23.54-6.71-7.02-1.83-14.36-3.56-21.32-5.85-1.86-.61-5.43-2.73-6.79-3-1.09-.22-1.97.47-2.82.31-1.17-.23-8.03-2.07-8.32-2.49-.32-.46-.06-1.47-.55-1.55-.95-.15-2.26.61-3.5.54-2.13-.14-6.27-2.51-8.38-2.95-1.76-.36-3.67.02-5.45-.14l-.55.99c.76,5.19-2.53,10.14-4.04,15.03-4.29,13.9-8.33,27.88-12.52,41.84-.6,1.99-2.86,15.2-6.03,14.47-1.94-1.39-.79-2.75-.84-4.3-.2-6.09,2.44-14.36,4.18-20.54,4.79-17,11-33.56,17.48-49.95,2.65.36,3.24-1.59,5.42-2.53,3.76-1.63,20.15-4.75,23.96-4.18,15.62,2.34,35.47,8.4,51.16,12.42,21.4,5.49,42.66,11.97,64.22,16.8,3.05.68,9.64,1.77,11.93,2.94,3.28,1.69,3.57,1.59,6.92,2.82.35.13,3.69,1.89,3.85,2.04ZM308.27,200.46c-2.14-.24-4.57-.75-6.64-1.34-18.38-5.29-37.06-9.84-55.5-14.75-9.81-2.61-19.64-5.57-29.31-8.06l-15.16,3.83c.03.94,13.2,3.06,14.97,3.48,21.83,5.21,43.36,12.17,64.89,18.18,11.25,3.14,22.73,6.85,34.2,9.1.75.15,2.23.49,2.84,0-.88-1.13-3.24-.36-3.07-2.31,2.02-1.29,5.78.71,6.81.43.61-.16,1.26-1.18,2.04-1.58s3.26-.34,2.94-1.67c-.4-.58-1.01-.72-1.62-.94-2.83-1.02-10.94-3.73-13.51-3.67-1.3.03-2.5.86-3.84.76l-.04-1.47ZM323.18,201.94c-1.64,1.42,7.17,2.95,7.17,1.28-.79-1.09-6.76-1.63-7.17-1.28ZM346.25,221.42l-4.4.99c-.38.49.41,5.15,1.07,5.15l3.33-6.14ZM361.64,250.65c-3.37-.04-5.73-1.92-8.71-3.08l-1.03,5.64c2.19.22,2.69-2.26,4.87-2.57,2.06-.29-.91,2.69,1.03,2.58,1.51-1.11,3.48-.52,3.84-2.57ZM367.28,253.21c-.83-.2-1.19.17-1.8.5-1.11.6-6.37,4.5-7.41,5.41-1.25,1.11-3.54,4.78-4.9,5.36-.63.27-.96-.12-.76-.76l3.07-3.85-5.05.58-1.92,9.71c2.63.13,3.72,4.09,4.92-.03l-2.04-.77c.72-.68,1.13-1.58,1.78-2.31,1.59-1.81,8.17-8.18,9.98-9.51.7-.51,1.07-.95,2.08-.74-.13,3.4-2.24,3.99-3.81,6.18-1,1.39-5.09,6.92-5.37,7.97-.26.96.23.75.97.71l4.62-6.15c-.03,1.9-1.82,4.23-2.05,5.89-.37,2.6,2.32-1.24,2.67-1.95.86-1.78,2.11-5.57,2.73-7.52.91-2.82,1.58-5.85,2.29-8.73ZM171.91,307.57c-3.32-.38-5.71-4.39-8.47-1.04-.96,1.17-1.02,2.53-1.39,2.97-1.06,1.27-4.4,4.09-6.22,6.09-15.31,16.82-29.18,34.39-42.13,52.99-.49.7-1.59.97-1.68,1.12-1.04,1.76,1.31,1.51,2.6,2.08,18.74,8.16,38.52,14.99,57.3,22.18,12.48,4.78,25.24,9.11,37.14,15.13,6.73-12.24,15.25-23.31,23.27-34.69,3.88-5.5,7.35-11.44,11.37-16.84,1.53-2.05,9.94-11.46,10.06-12.82.06-.64-.8-1.99-.85-3.1-.08-1.67.93-3.56.47-5.03-.8-2.55-3.79,1.63-4.53,2.5-8.67,10.04-18,23.4-25.56,34.43-3.11,4.54-5.12,11.22-11.37,12.47.94-1.27-.42-1.88-.47-2.79-.04-.7.94-1.8.22-2.33l-2.81,2.31c1.08.89,1.88,1.79,1.48,3.29-1.31.06-2.88,1.34-3.93,1.49-2.71.4-8.1-3.69-10.38-4.79-5.33-2.56-12.69-3.29-17.96-6.65-8.33-1.7-18.6-8.42-26.52-9.91-1.32-.25-2.29.26-3.29.14-.87-.1-1.2-2.13-1.97-1.27-.53.61,1.28,1.85,1.02,2.04-.7.09-5.84-.79-4.62-2.04.83.08,2.7-.38,1.55-1.29-2.48-1.95-7.88-2.98-10.8-4.58-.61-.33-2.03-.95-1.82-1.84l10.57-16.12c8.16-9.48,15.41-20.76,24.6-29.24.7-.64,5.79-4.13,5.14-4.86ZM180.12,311.66c-.72-1-4.92-2.82-5.64-1.27-.72,1.55,5.05,1.34,5.64,1.27ZM160.11,330.13c-2.9.3-4.78,1.59-6.15,4.1,1.25-.18,7.47-2.58,6.15-4.1ZM178.58,336.29c1.77-1.01,9.72-2.26,5.11-4.4l-35.62,14.15-1.29-1.55c1.84.13,2.66-1.51,3.88-2.57l-.59-2.06,4.91-2.81h-3.58s-12.07,16.18-12.07,16.18c-.57,1.31,1.35,2.7.27,4.59,3.02-.46,7.26,2.7,10.03,2.53.83-.05,5.37-3.87,7.4-3.56.02-.89.28-1.1-.73-.99-2.85.31-7.71,4.08-7.45-.24.15-2.57,2.21-1.83,3.1-3.08.67-.95.27-2.2.94-3.16.46-.66,4.88-2.68,6.17-3.57.85-.59.94-1.63,1.94-2.16,3.95-2.1,8.35-2.18,12.57-2.82,2.81-.43,5.73-2.75,9.11-2.44.35-2.23-3.57.09-4.1-2.04ZM260.1,339.35c.71-1.23-3.59-2.42-4.6-2.55.02,2.25.17,4.49-.51,6.66l5.11-4.11ZM181.13,353.71c.95-1.79-.16-3.84.09-5.26.32-1.83,3.14-3.19,3.81-4.97l-.57-1.04c-1.37.4-10.89,2.26-11,2.82-.35,1.83,5.4,1.28,6.67,1.79l-.51,6.67h1.52ZM222.67,353.72c-3-.81-8.34,4.22-2.88,2.49l2.88-2.49ZM229.85,354.75c-1.4-1.28-2.47,2.52-2.87,3.02-.7.86-2.16,1.34-2.81,2.36-.7,1.1-.38,3-2.08,5.05-.76.92-5.22,3.99-4.53,4.94l1.8.95c1.58-1.18,11.22-15.66,10.5-16.32ZM212.42,357.31c-4.38,1.08-10.83,1.22-14.42,3.8-.6.43-1.26,0-.96,1.32,1.2.91,11.87-3.07,13.84-3.85.62-.24,1.41-.53,1.54-1.27ZM161.65,359.87c-.34-.37-4.39,1.5-5.12,1.82-.62.28-1.26-.04-1.03.99l8.46,3.84c.75-.58.7-1.6,1.3-2.27.57-.63,3.49-1.88,3.55-2.59.11-1.23-1.37-.26-1.69-.17-2.76.8-5.88,3.58-5.48-1.63ZM172.42,365.52c-.72-.2-5.63,1.36-5.13,2.04l4.61,1.54.52-3.58ZM188.32,366.03c-3.19.48-6.65,2.2-9.72,2.85-1.4.29-3.53-.77-5.15.99.4.85,9.61,4.04,11.28,3.84l-3.06-3.79,6.65-3.89ZM206.26,368.08c-.27-.3-6.72,2.64-7.45,3.05s-1.49.42-1.26,1.56l8.37-3.07.34-1.55ZM195.5,372.18l-10.25,1.79c.53.72,5.05,2.34,5.33,2.28.58-.14.85-1.33,1.35-1.74,1.22-.99,3.62-.34,3.56-2.33ZM209.85,376.28c-1.42-.2-7.93,3.34-7.69,4.35l3.83,1.8c1.09-.73.59-2.07,1.05-3.06.6-1.29,2.86-1.41,2.8-3.09Z"/>
  <path d="M260.21,217.72l2.73,1.12,1.09-1.56c6.8,1.8,12.55,7.39,15.5,13.69,5.31,11.32,3.69,27.87-5.57,36.35-6.86,6.28-16.17,10.61-25.64,9.48l.88,1.42,8.86,2.69c-.54,1.47-.48,1.87.51,3.06-8.39-2.48-16.86-4.79-25.24-7.32-14.69-4.44-29.63-8.48-44.11-13.32-1.4-.47-8.37-2.65-8.82-2.97-.98-.71-.68-2.55-2.34-2.54-.14-.81.72-.54,1.29-.53,3.77.05,7.25,2.32,10.59,3.26,2.97.84,6.66,1.26,9.68,2.12,10.62,3,21.09,6.67,31.76,9.51-6.53-5.73-11.76-11.44-13.2-20.38-3.43-21.26,15.49-40.97,37-38.03,2.29.31,5.05,1.37,5.02,3.94ZM274.42,230.7c-.06-.09-1.23-.45-1.78-1.04-6.52-7.11-8.27-9.53-18.35-10.45-.42-.04-.9-.77-1.59-.82-7.95-.5-19.49,4.76-24.1,11.26-18.3,25.81,12.05,55.81,38.14,37.11,4.95-3.55,10.49-15.88,10.25-21.94-.18-4.6-2.28-8.21-2.96-12.01-.16-.92.44-2.03.38-2.12Z"/>
  <path d="M329.24,228.2c.15.14,1.07,3.9,1.05,4.11-.23,2.39-2.65,6.18-2.92,7.95-.19,1.21.54,2.13.35,3.34-.47,2.97-5.39,17.68-6.76,20.98-1.83,4.43-2.97,4.52-7.66,3.38-4.88-1.18-10.25-3.43-14.78-5.22-2.89-1.14-7.46-1.53-7.88-5.35l10.13-34.29c1.38-.85,2.32-2.14,4.15-1.66l24.32,6.76ZM321.64,250.14c-.13-2.64,1.59-4.75,2.32-7.17.68-2.26.92-4.97,1.51-7.21.34-1.28,1.97-2.51,1.08-4.13-3.26-.53-6.05-2.68-9.49-1.95l-.31,1.51-6.39.22c-1.26.63-.77,2.05-1.17,2.93-1.36,2.94-3.14,5.77-3.19,9.15,1.01,1.81,11.19,1.45,13.6,2.03.32,1.65-.8.79-1.78,1.03-4.07.97,3.29,4.11,3.83,3.59ZM303.7,252.19c-2.6.23-4.97,2.01-6.93,3.58l-1.78-2.55.23,4.63c2.11,1.48,2.2-1.16,2.84-1.79,1.15-1.16,4.82-1.79,5.64-3.86Z"/>
  <path d="M441.5,305.13c.92.97.52,3.3.76,4.62.92,5.05.47,8.66,1.01,13.33.14,1.23,1.77,2.63.68,4.52l-1.29-.05.46,5.44c.36.45,8.07,2.26,9.56,2.75,4.79,1.6,15.92,5.27,19.47,8.22.54.45,1.29,1.03,1.28,1.79l-2.18,3.47c-9.29,3.32-18.25,8.85-28.07,10.13-.28,1.29.94,2.24,1.01,3.35.28,4.29-1.09,10.51-1.51,14.86-.48,4.88-.07,9.79-2.07,14.61l-2.03-1.02-1.27,1.55c-.81-.11-1.47-.53-2.09-1.03-.44-.35-2.31-2.28-2.79-2.82-2.58-2.86-14.36-17.55-15.16-20.25-1.49-5.05,2.33-3.8,4.39-.8l15.11,18.21c1.33-.6.65-4.54.78-5.89.56-5.85,1.07-11.89,1.79-17.7.5-4.06.25-4.72,4.01-6.76,5.93-3.22,14.45-5.34,20.82-7.9.5-.2,3.62-1.8,3.62-2.01l-28.06-10.12c-1.84-1.96-.06-9.61-.62-12.46l-1.05-12.54c-.11-.16-2.95,1.71-3.33,2.05-4.42,4.07-8.8,10.08-13.26,14.17-3.33,3.05-2.68.95-4.88.44-.72-.17-1.81.39-2.82.24-6.42-1.01-14.97-5.25-21.46-7.3-.57-.18-2.21-1.88-1.95-.11.31,2.08,4.29,6.19-.54,6.19-2.6-1.06-5.96-10.79-2.3-11.38.52-.08,6.22.73,7.08.95,4.23,1.04,13.67,4.52,17.65,6.45,1.94.94,3.42,3.18,5.47,2.69.23-.06,1.5-2.84,2.12-3.63,3-3.79,11.1-11.75,14.9-14.84,1.92-1.56,4.46-3.85,6.77-1.42Z"/>
  <path d="M163.04,264.33c-4.26,3.49-9.05,6.81-13.43,10.42-2.13,1.75-5.79,2.48-5.38,6.15,1.92-.11,3.64-1.07,5.51-1.41.69-.13,1.41.38,1.94.32,1.03-.1,1.93-1.41,3.31-.95l-1.54,1.03c-.16.17.53.87.77,1.03.96.64,6.27,3.15,7.59,3.69,8.48,3.46,18.01,5.87,26.64,8.74,3.65,1.22,16.11,4.46,18.12,6.54.74.77.09,1.58,1.06,1.94,1.92.7,4.12-.09,6.07.1,5.78.55,14.46,4.95,20.37,6.82,16.54,5.22,36.25,9.85,52.03,16.68.92.4,7.26,3.3,5.8,4.71-4.62,1.03-8.44-.89-12.82-2.31-26.74-8.65-53.81-19.4-81.05-26.64-16.9-4.49-33.57-11.43-50.24-16.42-3.96-1.18-4.07-4.09-5.46-4.92-.75-.45-3.05-.38-3.23-1.27.31-1.22.98-2.38,1.77-3.35,1.83-2.25,20.74-17.83,22.86-18.66,1.57-.61,3.21.18,4.59-1.3-1.12,1.68.37,2.87.4,3.34.03.52-3.52,3.18-4.26,3.82-.66.57-.99,1.56-1.41,1.91Z"/>
  <path d="M284.23,144.48c2.1.08,11.92,1.5,12.25,3.42.34,1.94-7.95,5.07-9.12,6.69-.84,2.48,3.6,11.76-.41,12.42l-9.25-7.01-10.26,5.44-2.11-1.03,3.39-11.36c-.18-2.12-6.48-6.16-7.35-8.04-2.16-4.69,10.29-1.21,12.07-2.29,1.81-.88,5.32-13.25,8.11-8.63.94,1.55,2.29,10.03,2.68,10.39Z"/>
  <path d="M450.86,105.02l-4.74.63c-5.56,3.28-3.84,10.63-1.5,15.6,1.22,2.59,3.51,5.02,4.79,7.52.58,1.14,1.87,5.29,2.23,5.46.72.35,1.3-1.44,2.04-2.04,4.6-3.75,11.75-5.29,16.41-8.72,3.22-2.38,8.49-8.93,3.82-12.02-4.26-2.83-11.23,1.31-14.35,4.57-1.17,1.23-3.06,5.23-4.76,5.3-2.7.1-.86-4.3-.87-5.79,0-1.04-1.86-6.92-.25-6.92.82,0,2.26,3.71,2.71,4.46.18.31.02,1.01.87.65.53-.22,3.15-2.8,4.2-3.49,9.49-6.24,21.95-1.6,15.45,10.33-5,9.19-16.95,8.48-22.76,15.19-1.12,1.3-1.27,3.52-3.57,4-2.44-1.05-1.1-2.49-1.39-3.59-1.85-7.06-10.15-14.9-10.19-22.17-.03-6.83,5.1-13.14,11.83-8.97Z"/>
  <path d="M221.66,201.42c-.12-1.84-4.72-.88-6.8-1.15-2.53-.34-8.21-2.12-10.91-2.94-1.74-.53-3.03-1.15-4.58-2.06-1.25.27-2.18,5.48-2.58,6.68-.38,1.12-1.82,1.99-1.25,3.54,7.07,1.54,13.96,3.61,20.76,6.19.75.07.86-.33,1.13-.88.89-1.78,1.61-6.59,2.42-7.83s2.25.77,3.27.56c-.29,3.34-1.9,11.74-5.92,12.12-.28.03-4.81-.86-5.44-1.02-3.21-.8-8-2.16-11.15-3.21-2.49-.83-4.96-2.62-7.67-3.1-3.94-2.25,1.35-11.31,1.62-14.74.6-1.29,2.97-2.33,4.3-2.39,1.05-.04,8.76,2.29,10.46,2.8,2.78.83,10.01,3.01,12.16,4.25,1.93,1.11,2.39,1.94.17,3.17Z"/>
  <path d="M400.1,346.03l-.51,1.53,2.56-1.02c.14.74-.13,1.26-.4,1.9-1.61,3.82-8.91,11.41-11.59,15.59-.37.58-3.65,6.35-3.39,6.61,3.03-.25,5.79-1.59,8.68-2.33,4.24-1.09,7.38-1.36,11.46-1.86,1.39-.17,3.27-2.05,5.44-2.2,1.66-.12,1.46,1.02,1.72,1.14.81.37,2.01-.31,1.92.65-2.86-.7-3.7,1.48-5.46,2.49-2.89,1.64-24.11,7.96-27.08,7.8-1.3-.07-2.56-.75-3.79-1.12-.25-.4-.15-1.66-.04-2.2.96-4.68,13.83-21.55,17.65-25.43.84-.85,1.41-1.78,2.82-1.53Z"/>
  <path d="M50.38,383.71c.1-.33,3.65-2.9,4.12-3.06,1.41-.47,4,.15,4.59-1.05.46-.95-.68-.73-1.13-.89-2.06-.74-4.41-1.13-6.05-2.69l.78-1.28,13.58,4.62c.21,1.22-.14.97-1.02,1.26-3.82,1.26-8.75,1.42-12.72,2.43-1.71,2.08-.2,3.85-.16,5.85.05,2.57-1.5,6.01-.46,8.92-.6-.04-1.11.28-1.57-.32-2.21-2.8-2.68-8.44-5.94-11-2.41-.27-14.16,8.03-15.04,7.21.66-1.61,1.86-3.68,2.85-5.09,1.91-2.7,4.79-6.41,7.3-8.32l.11-1.17-13.35-14.9,18.16,7.98,11.07-14.4-2.57,15.89-1.45-.82.94-8.41c-2.36-.46-1.66,1.4-2.35,2.51-.78,1.26-4.01,6.38-5.14,6.59l-10.96-3.98c1.12,3.83,8.18,7.41,6.39,11.77-.31.76-4.96,6.1-4.34,6.68l8.89-3.55,5.46,8.16v-8.97Z"/>
  <path d="M318.05,303.47c2.1,4.13-3.65,5.75-3.33,9.23l2.57-2.05c.46,1.62-2.58,3.16-3.59,4.61l-.26-1.54c-.04-.07-1.14.49-1.37.69-3.19,2.99-6.4,7.36-9.58,10.42-1.39,1.34-7.87,7.8-9.57,6.6-1.48-1.86.82-3.14,2.58-2.84-.11-.94-.71-1.51-.27-2.53.84-1.98,5.66-6.15,7.27-7.9,3.74-4.05,7.72-8.8,11.96-12.39.5-.43,3.21-2.66,3.59-2.3Z"/>
  <path d="M301.75,282.32c1.79,1.02,3.34-.89,3.79-2.44.87-3.01-3.28-4.5-5.43-2.57-.36-1.29,1.12-2.86,2.31-2.89.43,0,.96.58,1.5.6,1.28.05,2.24-.83,3.66.2,3.45,2.49.76,9.28-2.36,10.56-1.14.47-3.59-1.24-5.11.76l-.03-1.5c-3.27.54-5.89-1.31-7.58-3.97-1.97-3.09-2.08-5.24-1.17-8.65,1.96-1.93,5.29-3.85,5.23.55-.02,1.55-1.78,2.39-2,4.22-.27,2.28.78,5.56,3.23,6.27l2.06-3.58c.84.27,1.63,2.28,1.9,2.44Z"/>
  <path d="M278.84,99.39c2.72-.6,1.33,7.34,1.31,8.39-.08,4.85.2,10.46-1.21,15.3-1.74,5.97-4.18,2.25-4.28-2.34-.06-2.98,1.47-17.71,2.67-19.78.21-.36,1.24-1.51,1.51-1.57Z"/>
  <path d="M293.35,334.34c.12.07,1.48,2.17,1.52,2.31.84,2.86-.95,5.62-1.4,8.12-.33,1.88-.22,3.85-.69,5.97-.47,2.16-1.78,9.04-3.45,9.88-2.18,1.1-2.61-.56-2.57-2.52.07-3.19,1.97-11.22,2.73-14.75.66-3.07,1.58-6.11,2.42-9.12.47.04,1-.14,1.44.11Z"/>
  <path d="M472.4,278.34c1.05,1.06-3.02,7.42-3.88,8.68-2.34,3.43-5.81,7.45-8.68,10.29-1.01,1-2.37,4.28-4.39,2.85-.94-.67-.38-1.94-.08-2.71.74-1.91,5.29-8.27,6.78-10.14,1-1.26,7.01-7.96,7.92-8.49.82-.48,1.38-.62,2.33-.49Z"/>
  <path d="M297.98,295.7c-2.01,1.29-25.43-6.75-28.91-8.62l.33-2.02c2.32-.5,4.37.8,6.5,1.39,3.25.9,7.38,1.78,10.88,2.92,3.94,1.28,8.1,2.97,11.75,4.67l-.55,1.67Z"/>
  <path d="M335.99,147.05l-19.24,4.14c-3.91.2-5.55-2.67-1.38-3.99,3.41-1.08,13.67-2.6,17.31-2.72,1.97-.07,3.46.23,3.3,2.57Z"/>
  <path d="M312.09,122.64c-.62.71-.92,1.74-1.5,2.35-1.07,1.13-6.63,6.93-7.91,5.13-.15-.71.03-1.37.23-2.04.59-1.97,9.38-11.82,11.28-13.34,1.13-.9,3.1-1.62,3.38.28.34,2.3-3.97,5.87-5.48,7.61Z"/>
  <path d="M465.25,315.74c-.27-1.15.35-1.94,1.32-2.46,5.26-1.65,11.89-5.16,17.43-4.62.75.07,1.16-.2,1.72.7-1.43.69-2.68,1.89-4.08,2.57-2.29,1.12-11.01,4.46-13.21,4.78-1.19.17-2.07-.8-3.18-.97Z"/>
  <path d="M416.78,274.75c3.23-.97,2.61,5.99,2.83,7.4.15.95.86,1.7.97,2.62.16,1.32.68,8.18.44,9.09-.2.75-1.2,1.3-1.7,1.89-.59-.4-.73-.99-.94-1.61-.93-2.79-2.75-14.89-2.42-17.63.07-.61.1-1.55.81-1.76Z"/>
  <path d="M399.07,337.31c-6.69-.59-8.45-5.21-6.66-11.28l1.96,1.37,4.7,9.91Z"/>
  <path d="M310.87,298.34c-.23.95-.82.95-1.64.92-1.41-.06-8.51-2.46-8.61-3.74-.09-1.16,1.42-.3,1.75-.23,3.05.6,5.55,2.2,8.49,3.06Z"/>
  <path d="M399.91,340.93c.99-.17,4.51,4.06,2.47,4.58-2.43.61-5.54-4.04-2.47-4.58Z"/>
  <path d="M334.46,315.77c.44,1.8-1.75,2.81-2.39,3.75-.48.71-.12,2.57-1.71,2.91l1.1-3.76,2.99-2.9Z"/>
  <path d="M344.72,310.65c.73.69-3.41,5.33-4.1,4.61-.15-1.16,2.89-5.74,4.1-4.61Z"/>
  <path d="M324.19,311.67c-1.9-.86-2.16-.05-3.57,1.02l2.33-4.13c2.33-.06,1.78,1.53,1.24,3.1Z"/>
  <path d="M266.12,258.71c-.75.83-6.41,4.29-7.72,4.85-18.89,8.13-37.94-13.29-24.96-30.09,9.62-12.45,30.46-11.42,36.42,4.09,2.12,5.52,1.66,9.61-.29,15.13-.36,1.02-2.82,5.31-3.46,6.02ZM233.96,240.9c4.05-.25,3.49-3.09,4.1-6.15l-1.56.88-2.54,5.27ZM251.9,237.83c-3.24-.86-5.71-.47-7.17,2.81.21,1,2.89.93,3.74.67.43-.13,3.99-2.96,3.43-3.48Z"/>
</svg>